<?xml version="1.0" encoding="UTF-8" standalone="no"?>
<!-- Created with Inkscape (http://www.inkscape.org/) -->

<svg
   xmlns:dc="http://purl.org/dc/elements/1.1/"
   xmlns:cc="http://creativecommons.org/ns#"
   xmlns:rdf="http://www.w3.org/1999/02/22-rdf-syntax-ns#"
   xmlns:svg="http://www.w3.org/2000/svg"
   xmlns="http://www.w3.org/2000/svg"
   xmlns:sodipodi="http://sodipodi.sourceforge.net/DTD/sodipodi-0.dtd"
   xmlns:inkscape="http://www.inkscape.org/namespaces/inkscape"
   width="600mm"
   height="300mm"
   viewBox="0 0 600 300"
   version="1.1"
   id="svg8"
   inkscape:version="0.92.4 (5da689c313, 2019-01-14)"
   sodipodi:docname="busje_v5.svg">
  <defs
     id="defs2">
    <inkscape:path-effect
       effect="bspline"
       id="path-effect4708"
       is_visible="true"
       weight="33.333333"
       steps="2"
       helper_size="0"
       apply_no_weight="true"
       apply_with_weight="true"
       only_selected="false" />
  </defs>
  <sodipodi:namedview
     id="base"
     pagecolor="#ffffff"
     bordercolor="#666666"
     borderopacity="1.0"
     inkscape:pageopacity="0.0"
     inkscape:pageshadow="2"
     inkscape:zoom="1.9999999"
     inkscape:cx="421.22669"
     inkscape:cy="996.03249"
     inkscape:document-units="mm"
     inkscape:current-layer="layer1"
     showgrid="true"
     showguides="false"
     inkscape:window-width="1920"
     inkscape:window-height="1027"
     inkscape:window-x="-8"
     inkscape:window-y="-8"
     inkscape:window-maximized="1"
     inkscape:snap-grids="true"
     inkscape:snap-page="false">
    <inkscape:grid
       type="xygrid"
       id="grid828"
       units="mm"
       spacingx="0.99999999"
       spacingy="0.99999999" />
  </sodipodi:namedview>
  <metadata
     id="metadata5">
    <rdf:RDF>
      <cc:Work
         rdf:about="">
        <dc:format>image/svg+xml</dc:format>
        <dc:type
           rdf:resource="http://purl.org/dc/dcmitype/StillImage" />
        <dc:title />
      </cc:Work>
    </rdf:RDF>
  </metadata>
  <g
     inkscape:label="Laag 1"
     inkscape:groupmode="layer"
     id="layer1"
     transform="translate(0,3)">
    <path
       style="opacity:1;fill:#000000;fill-opacity:1;stroke:none;stroke-width:0.05;stroke-linecap:round;stroke-linejoin:round;stroke-miterlimit:4;stroke-dasharray:none;stroke-opacity:1;paint-order:normal"
       d="m 203.65037,31.76853 a 1.703324,1.725 0 0 0 -1.70329,1.724961 1.703324,1.725 0 0 0 1.70329,1.724959 1.703324,1.725 0 0 0 1.70328,-1.724959 1.703324,1.725 0 0 0 -1.70328,-1.724961 z m 0,0.49971 a 1.2096069,1.225 0 0 1 1.20934,1.225251 1.2096069,1.225 0 0 1 -1.20934,1.22473 1.2096069,1.225 0 0 1 -1.20986,-1.22473 1.2096069,1.225 0 0 1 1.20986,-1.225251 z"
       id="path4729-1-0-0-6-0"
       inkscape:connector-curvature="0" />
    <path
       style="opacity:1;fill:#000000;fill-opacity:1;stroke:none;stroke-width:0.05;stroke-linecap:round;stroke-linejoin:round;stroke-miterlimit:4;stroke-dasharray:none;stroke-opacity:1;paint-order:normal"
       d="m 226.36278,31.76853 a 1.703324,1.725 0 0 0 -1.70328,1.724961 1.703324,1.725 0 0 0 1.70328,1.724959 1.703324,1.725 0 0 0 1.70329,-1.724959 1.703324,1.725 0 0 0 -1.70329,-1.724961 z m 0,0.49971 a 1.2096069,1.225 0 0 1 1.20934,1.225251 1.2096069,1.225 0 0 1 -1.20934,1.22473 1.2096069,1.225 0 0 1 -1.20985,-1.22473 1.2096069,1.225 0 0 1 1.20985,-1.225251 z"
       id="path4729-1-0-0-2"
       inkscape:connector-curvature="0" />
    <path
       inkscape:connector-curvature="0"
       style="opacity:1;fill:#000000;fill-opacity:1;stroke:none;stroke-width:0.05;stroke-linecap:round;stroke-linejoin:round;stroke-miterlimit:4;stroke-dasharray:none;stroke-opacity:1;paint-order:normal"
       d="m 214.99805,23.037142 a 2.9376166,2.9750001 0 0 0 -2.93763,2.975019 2.9376166,2.9750001 0 0 0 2.93763,2.975011 2.9376166,2.9750001 0 0 0 2.93762,-2.975011 2.9376166,2.9750001 0 0 0 -2.93762,-2.975019 z m 0.13726,1.16686 h 0.002 c 0.15495,-10e-4 0.28043,0.004 0.37759,0.015 0.055,0.006 0.10009,0.0153 0.13879,0.0258 0.0808,0.01 0.14468,0.0459 0.18931,0.111101 0.0611,0.0871 0.13628,0.35788 0.22554,0.81236 0.0366,0.18454 0.0768,0.362809 0.12095,0.53536 0.0453,0.17258 0.0824,0.29687 0.11174,0.37207 0.009,0.0273 0.0312,0.0795 0.0678,0.15814 0.0404,-0.17941 0.088,-0.41442 0.14287,-0.70487 0.0807,-0.4579 0.15472,-0.766981 0.22198,-0.92759 0.0207,-0.0513 0.0451,-0.0961 0.072,-0.135391 0.0502,-0.0648 0.10377,-0.114729 0.16124,-0.148829 0.0587,-0.0342 0.1173,-0.0512 0.17605,-0.0512 0.0354,0 0.0599,0.0125 0.0735,0.0382 0.0143,0.0256 0.0199,0.0719 0.0199,0.13849 0,0.0495 -0.004,0.0862 -0.008,0.11007 -0.0122,0.0888 -0.0337,0.20443 -0.0643,0.34623 -0.0305,0.1401 -0.0739,0.32152 -0.13013,0.54364 -0.055,0.2204 -0.12413,0.48763 -0.20717,0.802023 l -0.0275,0.0946 c -0.01,0.041 -0.0176,0.0746 -0.0255,0.100248 -0.14792,0.57922 -0.26027,0.955011 -0.33729,1.127582 -0.0159,0.0358 -0.0352,0.0689 -0.0572,0.0997 -0.0379,0.053 -0.075,0.0796 -0.11175,0.0796 -0.0941,0 -0.19533,-0.139923 -0.30412,-0.420132 -0.19806,-0.502312 -0.3534,-1.01804 -0.46588,-1.547712 -0.0232,-0.0991 -0.0414,-0.19289 -0.0536,-0.28009 h -0.008 l -0.22197,0.977203 c -0.002,0.01701 -0.007,0.0388 -0.0148,0.0661 -0.007,0.0255 -0.0144,0.05 -0.0184,0.0739 -0.005,0.01881 -0.0105,0.0402 -0.0184,0.0641 -0.006,0.0222 -0.0123,0.0414 -0.0163,0.0568 -0.0404,0.170852 -0.0734,0.29986 -0.099,0.387062 -0.0257,0.0854 -0.0514,0.156091 -0.077,0.212389 -0.0219,0.053 -0.0541,0.110072 -0.097,0.171571 -0.0623,0.0803 -0.13185,0.14355 -0.20769,0.189648 -0.0757,0.0462 -0.15108,0.0692 -0.22554,0.0692 -0.0625,0 -0.0934,-0.0348 -0.0934,-0.104902 0,-0.053 0.0277,-0.144568 0.0826,-0.274399 0.0636,-0.148659 0.13484,-0.35265 0.21431,-0.61237 0.0135,-0.0547 0.0328,-0.121489 0.0572,-0.199988 l 0.0372,-0.143143 c -0.21419,0.33024 -0.43429,0.629452 -0.66028,0.894001 -0.0969,0.11394 -0.19656,0.211302 -0.29953,0.29301 -0.10298,0.0817 -0.20668,0.144399 -0.31126,0.1881 -0.10292,0.045 -0.20742,0.071 -0.31383,0.078 -0.15118,0.01 -0.28737,-0.0613 -0.40821,-0.21394 -0.119,-0.15276 -0.16504,-0.316989 -0.13828,-0.493001 0.0197,-0.12927 0.0688,-0.256407 0.14696,-0.381367 0.0803,-0.126461 0.17906,-0.233842 0.29595,-0.321943 0.0661,-0.0453 0.13369,-0.0849 0.2036,-0.119369 0.0718,-0.0347 0.12471,-0.0528 0.15819,-0.0558 0.0299,-0.0021 0.0518,0.009 0.0648,0.0326 0.0146,0.0236 0.0192,0.0592 0.0113,0.105939 -0.003,0.02201 -0.0168,0.0615 -0.0403,0.118851 -0.10518,0.265589 -0.1721,0.492019 -0.20054,0.67903 -0.0162,0.101758 -0.0142,0.189431 0.004,0.26303 0.08,-0.0883 0.14706,-0.17802 0.20156,-0.268722 0.14454,-0.25731 0.26706,-0.49421 0.36842,-0.710549 0.16502,-0.355311 0.29121,-0.648161 0.37811,-0.878501 0.0871,-0.23172 0.18264,-0.52383 0.28626,-0.87643 -0.0364,0.009 -0.0713,0.0189 -0.1041,0.0269 -0.0307,0.008 -0.0545,0.0136 -0.072,0.0196 -0.0172,0.004 -0.0652,0.0168 -0.14236,0.0382 -0.33173,0.0913 -0.5496,0.14028 -0.65418,0.14728 -0.10078,0.007 -0.18047,-0.002 -0.23983,-0.0248 -0.0571,-0.0247 -0.0823,-0.0621 -0.0744,-0.11162 0.0123,-0.0811 0.0711,-0.17481 0.17605,-0.28112 0.10676,-0.10642 0.21339,-0.17783 0.32045,-0.21343 0.10124,-0.0338 0.22109,-0.0618 0.35923,-0.0832 0.13836,-0.0227 0.3145,-0.0406 0.52915,-0.0548 0.2128,-0.0145 0.39715,-0.0218 0.55211,-0.0238 z"
       id="path4729-5-9-0-9" />
    <path
       style="opacity:1;vector-effect:none;fill:none;fill-opacity:1;stroke:#0000de;stroke-width:0.05;stroke-linecap:butt;stroke-linejoin:miter;stroke-miterlimit:4;stroke-dasharray:none;stroke-dashoffset:0;stroke-opacity:1"
       d="m 215,38.000005 c 1.79942,-6.936194 5.20354,-13.343936 20,-16.000002 v 0"
       id="path4712-8"
       inkscape:connector-curvature="0"
       sodipodi:nodetypes="ccc" />
    <path
       style="opacity:1;vector-effect:none;fill:none;fill-opacity:1;stroke:#0000de;stroke-width:0.04999999;stroke-linecap:butt;stroke-linejoin:miter;stroke-miterlimit:4;stroke-dasharray:none;stroke-dashoffset:0;stroke-opacity:1"
       d="m 215,36.000004 c 0.53938,-4.427328 5.20354,-12.509938 20,-15.000001 v 0"
       id="path4712-8-2"
       inkscape:connector-curvature="0"
       sodipodi:nodetypes="ccc" />
    <path
       style="opacity:1;vector-effect:none;fill:none;fill-opacity:1;stroke:#0000de;stroke-width:0.04999999;stroke-linecap:butt;stroke-linejoin:miter;stroke-miterlimit:4;stroke-dasharray:none;stroke-dashoffset:0;stroke-opacity:1"
       d="m 215,36.000004 c -0.53939,-4.427331 -5.20354,-12.50994 -20,-15.000002 v 0"
       id="path4712-8-2-2"
       inkscape:connector-curvature="0"
       sodipodi:nodetypes="ccc" />
    <path
       style="opacity:1;vector-effect:none;fill:none;fill-opacity:1;stroke:#0000de;stroke-width:0.05;stroke-linecap:butt;stroke-linejoin:miter;stroke-miterlimit:4;stroke-dasharray:none;stroke-dashoffset:0;stroke-opacity:1"
       d="m 215,38.000005 c -1.79942,-6.936194 -5.20354,-13.343936 -20,-16.000002 v 0"
       id="path4712-8-25"
       inkscape:connector-curvature="0"
       sodipodi:nodetypes="ccc" />
    <path
       style="opacity:1;vector-effect:none;fill:none;fill-opacity:1;stroke:#ff0000;stroke-width:0.05;stroke-linecap:butt;stroke-linejoin:miter;stroke-miterlimit:4;stroke-dasharray:none;stroke-dashoffset:0;stroke-opacity:1"
       d="m 80.999846,3.0000153 h 40.000004 v 2.9999999 h -3 v 2.9999996 h 3 v 3.0000002 h -3 v 3 h 3 v 3 h -3 v 8 h 3 v 3.000001 h -3 v 3.000001 h 3 v 3 h -3 v 2.999996 h -3 v 3 h -3 v -3 h -3 v 3 h -3 v -3 H 95.999848 v 3 h -3.000002 v -3 h -3 v 3 h -2.999999 v -3 h -2.999999 v -2.999996 h -3.000002 v -3 h 3.000002 v -3.000001 h -3.000002 v -3.000001 h 3.000002 v -8 h -3.000002 v -3 h 3.000002 v -3 H 80.999846 V 9.0000148 h 3.000002 V 6.0000152 h -3.000002 z"
       id="path5013"
       inkscape:connector-curvature="0" />
    <rect
       style="opacity:1;fill:none;fill-opacity:1;stroke:#ff0000;stroke-width:0.05;stroke-linecap:round;stroke-linejoin:round;stroke-miterlimit:4;stroke-dasharray:none;stroke-opacity:1;paint-order:normal"
       id="rect4979-6"
       width="27.999996"
       height="12"
       x="86.999847"
       y="6.0000153" />
    <path
       style="opacity:1;vector-effect:none;fill:none;fill-opacity:1;stroke:#0000de;stroke-width:0.05;stroke-linecap:butt;stroke-linejoin:miter;stroke-miterlimit:4;stroke-dasharray:none;stroke-dashoffset:0;stroke-opacity:1"
       d="M 83.999848,21.000015 H 117.99985"
       id="path5047"
       inkscape:connector-curvature="0" />
    <path
       style="opacity:1;vector-effect:none;fill:none;fill-opacity:1;stroke:#0000de;stroke-width:0.05;stroke-linecap:butt;stroke-linejoin:miter;stroke-miterlimit:4;stroke-dasharray:none;stroke-dashoffset:0;stroke-opacity:1"
       d="M 83.999848,22.000016 H 117.99985"
       id="path5047-3"
       inkscape:connector-curvature="0" />
    <rect
       style="opacity:1;fill:none;fill-opacity:1;stroke:#0000de;stroke-width:0.05;stroke-linecap:round;stroke-linejoin:round;stroke-miterlimit:4;stroke-dasharray:none;stroke-opacity:1;paint-order:normal"
       id="rect5141"
       width="25.999996"
       height="5.999999"
       x="87.999847"
       y="24.000017" />
    <rect
       style="opacity:1;fill:none;fill-opacity:1;stroke:#0000de;stroke-width:0.05;stroke-linecap:butt;stroke-linejoin:miter;stroke-miterlimit:4;stroke-dasharray:none;stroke-opacity:1;paint-order:normal"
       id="rect5150"
       width="3.9999998"
       height="0.99999994"
       x="98.99984"
       y="28.000019"
       ry="0.49999997" />
    <rect
       style="opacity:1;fill:none;fill-opacity:1;stroke:#0000de;stroke-width:0.05;stroke-linecap:round;stroke-linejoin:round;stroke-miterlimit:4;stroke-dasharray:none;stroke-opacity:1;paint-order:normal"
       id="rect5141-1"
       width="15.999997"
       height="5.9999986"
       x="92.999847"
       y="31.000015" />
    <rect
       style="opacity:1;fill:none;fill-opacity:1;stroke:#0000de;stroke-width:0.05;stroke-linecap:round;stroke-linejoin:round;stroke-miterlimit:4;stroke-dasharray:none;stroke-opacity:1;paint-order:normal"
       id="rect5141-1-2"
       width="13.999997"
       height="3.9999993"
       x="93.999847"
       y="32.000019" />
    <path
       style="opacity:1;vector-effect:none;fill:none;fill-opacity:1;stroke:#0000de;stroke-width:0.04999999;stroke-linecap:butt;stroke-linejoin:miter;stroke-miterlimit:4;stroke-dasharray:none;stroke-dashoffset:0;stroke-opacity:1"
       d="M 7.0000741,22.000025 H 84.000075"
       id="path5047-3-6"
       inkscape:connector-curvature="0" />
    <path
       style="opacity:1;vector-effect:none;fill:none;fill-opacity:1;stroke:#0000de;stroke-width:0.04999999;stroke-linecap:butt;stroke-linejoin:miter;stroke-miterlimit:4;stroke-dasharray:none;stroke-dashoffset:0;stroke-opacity:1"
       d="M 7.0000801,21.000025 H 84.000081"
       id="path5047-3-6-5"
       inkscape:connector-curvature="0" />
    <path
       style="opacity:1;vector-effect:none;fill:none;fill-opacity:1;stroke:#ff0000;stroke-width:0.05;stroke-linecap:butt;stroke-linejoin:miter;stroke-miterlimit:4;stroke-dasharray:none;stroke-dashoffset:0;stroke-opacity:1"
       d="m 18.00008,6.000025 -6,12 h 18 v -12 z"
       id="path5359"
       inkscape:connector-curvature="0" />
    <rect
       style="opacity:1;fill:none;fill-opacity:1;stroke:#0000de;stroke-width:0.05;stroke-linecap:butt;stroke-linejoin:miter;stroke-miterlimit:4;stroke-dasharray:none;stroke-opacity:1;paint-order:normal"
       id="rect5150-4"
       width="3.9999998"
       height="0.99999994"
       x="27.000082"
       y="23.000027"
       ry="0.49999997" />
    <rect
       style="opacity:1;fill:none;fill-opacity:1;stroke:#ff0000;stroke-width:0.05;stroke-linecap:square;stroke-linejoin:miter;stroke-miterlimit:4;stroke-dasharray:none;stroke-opacity:1;paint-order:normal"
       id="rect5380"
       width="13"
       height="12"
       x="34.000076"
       y="6.0000253"
       ry="0" />
    <rect
       style="opacity:1;fill:none;fill-opacity:1;stroke:#ff0000;stroke-width:0.05;stroke-linecap:square;stroke-linejoin:miter;stroke-miterlimit:4;stroke-dasharray:none;stroke-opacity:1;paint-order:normal"
       id="rect5380-0"
       width="13"
       height="12"
       x="50.00008"
       y="6.0000248"
       ry="0" />
    <rect
       style="opacity:1;fill:none;fill-opacity:1;stroke:#ff0000;stroke-width:0.05;stroke-linecap:square;stroke-linejoin:miter;stroke-miterlimit:4;stroke-dasharray:none;stroke-opacity:1;paint-order:normal"
       id="rect5380-0-2"
       width="13"
       height="12"
       x="66.000076"
       y="6.0000253"
       ry="0" />
    <path
       inkscape:connector-curvature="0"
       style="opacity:1;fill:none;fill-opacity:0.38693471;stroke:#ff0000;stroke-width:0.05;stroke-linecap:square;stroke-linejoin:miter;stroke-miterlimit:4;stroke-dasharray:none;stroke-opacity:1;paint-order:normal"
       d="m 80.999848,3.0002316 h -61.968311 -6.00015 l -0.0067,0.01292 2.626713,1.3906127 -1.404047,2.6515176 -2.626196,-1.3911294 -1.404048,2.6520347 2.626196,1.390613 -1.403533,2.6510008 -2.6261959,-1.390613 -1.403532,2.651518 2.6261969,1.390095 -1.4040489,2.651518 -2.626196,-1.390096 -1.974557,3.730005 h 2.968294 v 2.999816 h -2.968294 v 3.000332 h 2.968294 v 2.999819 h -2.968294 v 3.000333 h 2.968294 v 2.999817 h -2.968294 v 2.999817 h 2.968294 5.3e-4 v 2.999816 h 2.9998039 v -2.999816 h 1.999878 0.211873 c 0.720268,-4.32403 4.458751,-7.495109 8.842355,-7.500319 4.386731,0.0013 8.129837,3.173209 8.850621,7.500319 h 1.095542 3.05821 v 2.999816 h 2.999817 v -2.999816 h 2.999817 v 2.999816 h 3.000335 v -2.999816 h 2.999817 v 2.999816 h 3.000333 v -2.999816 h 2.999816 v 2.999816 h 2.999817 v -2.999816 h 2.941939 0.05478 0.194304 c 0.720268,-4.32403 4.458751,-7.495109 8.842354,-7.500319 4.386734,0.0013 8.129839,3.173209 8.850622,7.500319 h 0.05788 0.99994 0.999943 v 2.999816 h 2.999816 v -2.999816 h 3.00033"
       id="rect5514-3"
       sodipodi:nodetypes="cccccccccccccccccccccccccccccccccccccccccccccccccccccccccccccccccc" />
    <circle
       style="opacity:1;fill:none;fill-opacity:1;stroke:#ff0000;stroke-width:0.05;stroke-linecap:round;stroke-linejoin:round;stroke-miterlimit:4;stroke-dasharray:none;stroke-opacity:1;paint-order:normal"
       id="path4567-3"
       cx="21.054235"
       cy="39.475025"
       r="7.9750004" />
    <rect
       style="opacity:1;fill:none;fill-opacity:1;stroke:#ff0000;stroke-width:0.05;stroke-linecap:round;stroke-linejoin:miter;stroke-miterlimit:4;stroke-dasharray:none;stroke-opacity:1;paint-order:normal"
       id="rect4574-7"
       width="2.95"
       height="2.95"
       x="19.579248"
       y="38.000027" />
    <circle
       style="opacity:1;fill:none;fill-opacity:1;stroke:#ff0000;stroke-width:0.05;stroke-linecap:round;stroke-linejoin:round;stroke-miterlimit:4;stroke-dasharray:none;stroke-opacity:1;paint-order:normal"
       id="path4567-3-7"
       cx="67.091782"
       cy="39.475025"
       r="7.9750004" />
    <rect
       style="opacity:1;fill:none;fill-opacity:1;stroke:#ff0000;stroke-width:0.05;stroke-linecap:round;stroke-linejoin:miter;stroke-miterlimit:4;stroke-dasharray:none;stroke-opacity:1;paint-order:normal"
       id="rect4574-7-1"
       width="2.95"
       height="2.95"
       x="65.616783"
       y="38.000027" />
    <path
       style="opacity:1;vector-effect:none;fill:none;fill-opacity:1;stroke:#0000de;stroke-width:0.04999999;stroke-linecap:butt;stroke-linejoin:miter;stroke-miterlimit:4;stroke-dasharray:none;stroke-dashoffset:0;stroke-opacity:1"
       d="m 194.99968,21.99981 h -77"
       id="path5047-3-6-3"
       inkscape:connector-curvature="0" />
    <path
       style="opacity:1;vector-effect:none;fill:none;fill-opacity:1;stroke:#0000de;stroke-width:0.04999999;stroke-linecap:butt;stroke-linejoin:miter;stroke-miterlimit:4;stroke-dasharray:none;stroke-dashoffset:0;stroke-opacity:1"
       d="m 194.99968,20.99981 h -77"
       id="path5047-3-6-5-4"
       inkscape:connector-curvature="0" />
    <path
       style="opacity:1;vector-effect:none;fill:none;fill-opacity:1;stroke:#ff0000;stroke-width:0.05;stroke-linecap:butt;stroke-linejoin:miter;stroke-miterlimit:4;stroke-dasharray:none;stroke-dashoffset:0;stroke-opacity:1"
       d="m 183.99968,5.9998097 6,11.9999993 h -18 V 5.9998097 Z"
       id="path5359-6"
       inkscape:connector-curvature="0" />
    <rect
       style="opacity:1;fill:none;fill-opacity:1;stroke:#0000de;stroke-width:0.05;stroke-linecap:butt;stroke-linejoin:miter;stroke-miterlimit:4;stroke-dasharray:none;stroke-opacity:1;paint-order:normal"
       id="rect5150-4-2"
       width="3.9999998"
       height="0.99999994"
       x="-174.99968"
       y="22.999813"
       ry="0.49999997"
       transform="scale(-1,1)" />
    <rect
       style="opacity:1;fill:none;fill-opacity:1;stroke:#ff0000;stroke-width:0.05;stroke-linecap:square;stroke-linejoin:miter;stroke-miterlimit:4;stroke-dasharray:none;stroke-opacity:1;paint-order:normal"
       id="rect5380-4"
       width="13"
       height="12"
       x="-167.99965"
       y="5.9998097"
       ry="0"
       transform="scale(-1,1)" />
    <rect
       style="opacity:1;fill:none;fill-opacity:1;stroke:#ff0000;stroke-width:0.05;stroke-linecap:square;stroke-linejoin:miter;stroke-miterlimit:4;stroke-dasharray:none;stroke-opacity:1;paint-order:normal"
       id="rect5380-0-6"
       width="13"
       height="12"
       x="-151.99966"
       y="5.9998097"
       ry="0"
       transform="scale(-1,1)" />
    <rect
       style="opacity:1;fill:none;fill-opacity:1;stroke:#ff0000;stroke-width:0.05;stroke-linecap:square;stroke-linejoin:miter;stroke-miterlimit:4;stroke-dasharray:none;stroke-opacity:1;paint-order:normal"
       id="rect5380-0-2-1"
       width="13"
       height="12"
       x="-135.99966"
       y="5.9998097"
       ry="0"
       transform="scale(-1,1)" />
    <path
       inkscape:connector-curvature="0"
       style="opacity:1;fill:none;fill-opacity:0.38693471;stroke:#ff0000;stroke-width:0.05;stroke-linecap:square;stroke-linejoin:miter;stroke-miterlimit:4;stroke-dasharray:none;stroke-opacity:1;paint-order:normal"
       d="m 120.99985,3.0003165 h 61.96837 6.00015 l 0.007,0.01292 -2.62671,1.3906133 1.40404,2.6515166 2.6262,-1.3911289 1.40405,2.6520342 -2.6262,1.390613 1.40353,2.6510013 2.6262,-1.390613 1.40353,2.651519 -2.6262,1.390095 1.40405,2.651518 2.6262,-1.390097 1.97456,3.730006 h -2.9683 v 2.999817 h 2.9683 v 3.000332 h -2.9683 v 2.99982 h 2.9683 v 3.000332 h -2.9683 v 2.999817 h 2.9683 v 2.999817 h -2.9683 -5.3e-4 v 2.999817 h -2.9998 v -2.999817 h -1.99988 -0.21187 c -0.72027,-4.324033 -4.45875,-7.495111 -8.84236,-7.500318 -4.38673,0.0013 -8.12984,3.173206 -8.85062,7.500318 h -1.09554 -3.05821 v 2.999817 h -2.99982 v -2.999817 h -2.99981 v 2.999817 h -3.00033 v -2.999817 h -2.99982 v 2.999817 h -3.00033 v -2.999817 h -2.99982 v 2.999817 h -2.99981 v -2.999817 h -2.94194 -0.0548 -0.1943 c -0.72027,-4.324033 -4.45875,-7.495111 -8.84236,-7.500318 -4.38673,0.0013 -8.12984,3.173206 -8.85062,7.500318 h -0.0579 -0.99994 -0.99994 v 2.999817 h -2.99981 v -2.999817 h -3.00033"
       id="rect5514-3-7"
       sodipodi:nodetypes="cccccccccccccccccccccccccccccccccccccccccccccccccccccccccccccccccc" />
    <circle
       style="opacity:1;fill:none;fill-opacity:1;stroke:#ff0000;stroke-width:0.05;stroke-linecap:round;stroke-linejoin:round;stroke-miterlimit:4;stroke-dasharray:none;stroke-opacity:1;paint-order:normal"
       id="path4567-3-3"
       cx="-180.94553"
       cy="39.474812"
       r="7.9750004"
       transform="scale(-1,1)" />
    <rect
       style="opacity:1;fill:none;fill-opacity:1;stroke:#ff0000;stroke-width:0.05;stroke-linecap:round;stroke-linejoin:round;stroke-miterlimit:4;stroke-dasharray:none;stroke-opacity:1;paint-order:normal"
       id="rect4574-7-19"
       width="2.95"
       height="2.95"
       x="-182.42052"
       y="37.999813"
       transform="scale(-1,1)" />
    <circle
       style="opacity:1;fill:none;fill-opacity:1;stroke:#ff0000;stroke-width:0.05;stroke-linecap:round;stroke-linejoin:round;stroke-miterlimit:4;stroke-dasharray:none;stroke-opacity:1;paint-order:normal"
       id="path4567-3-7-7"
       cx="-134.90796"
       cy="39.474812"
       r="7.9750004"
       transform="scale(-1,1)" />
    <rect
       style="opacity:1;fill:none;fill-opacity:1;stroke:#ff0000;stroke-width:0.05;stroke-linecap:round;stroke-linejoin:round;stroke-miterlimit:4;stroke-dasharray:none;stroke-opacity:1;paint-order:normal"
       id="rect4574-7-1-0"
       width="2.95"
       height="2.95"
       x="-136.38293"
       y="37.999813"
       transform="scale(-1,1)" />
    <path
       inkscape:connector-curvature="0"
       style="opacity:1;vector-effect:none;fill:none;fill-opacity:1;stroke:#ff0000;stroke-width:0.05;stroke-linecap:butt;stroke-linejoin:miter;stroke-miterlimit:4;stroke-dasharray:none;stroke-dashoffset:0;stroke-opacity:1"
       d="m 197.96844,38.000061 h 2.99982 v 2.999819 h 3.00033 v -2.999819 h 2.99982 v 2.999819 h 2.99981 v -2.999819 h 10.00043 v 2.999819 h 2.99981 v -2.999819 h 2.99982 v 2.999819 h 3.00033 v -2.999819 h 2.99982 v -2.999819 h 2.99982 v -3.00033 h -2.99982 V 29.00009 h 2.99982 v -2.999819 h -2.99982 V 22.99994 h 2.99982 v -2.99981 l -3.00128,-0.0143 0.003,1.47332 -34.00629,-0.0117 v -1.44734"
       id="path4686-8-8-9"
       sodipodi:nodetypes="ccccccccccccccccccccccccccccccccc" />
    <path
       inkscape:connector-curvature="0"
       style="opacity:1;vector-effect:none;fill:none;fill-opacity:1;stroke:#ff0000;stroke-width:0.05;stroke-linecap:butt;stroke-linejoin:miter;stroke-miterlimit:4;stroke-dasharray:none;stroke-dashoffset:0;stroke-opacity:1"
       d="m 194.9688,0.99995205 v 2.98793315 0.01188 h 2.99982 v 3.0003329 h -2.99982 v 2.9982659 0.0016 h 2.99982 v 2.999835 h -2.99982 v 0.0036 2.996718 h 2.99982 v 2.241722 0.758095 1.190625 c 12.34193,0 22.96687,2.4e-5 34,2.4e-5 V 18.999948 16.00013 h 2.99981 v -3.000373 h -2.99981 V 9.9999408 h 2.99981 V 7.000123 h -2.99981 V 3.9997901 h 2.99981 V 0.99996305 h -2.99981 -2.99982 -31.00018 z"
       id="path4839-0-0-1"
       sodipodi:nodetypes="cccccccccccccccccccccccccccccccccc" />
    <g
       aria-label="Lars"
       transform="matrix(0.99369727,0,0,1.0063427,0.81809153,1.9068892)"
       style="font-style:normal;font-variant:normal;font-weight:normal;font-stretch:normal;font-size:14.25839424px;line-height:1.25;font-family:'AR CENA';-inkscape-font-specification:'AR CENA, weight=101';font-variant-ligatures:normal;font-variant-caps:normal;font-variant-numeric:normal;font-feature-settings:normal;text-align:start;letter-spacing:0px;word-spacing:0px;writing-mode:lr-tb;text-anchor:start;fill:#000000;fill-opacity:1;stroke:none;stroke-width:0.26458338"
       id="text1203-4-0-0">
      <path
         d="m 38.053516,30.419252 q 0.655886,0 1.012346,0.142584 0.570336,0.228135 0.570336,0.769953 0,0.213876 -0.142584,0.470527 -0.142584,0.256652 -0.342201,0.256652 -0.213876,0 -0.527561,-0.05703 -0.769953,-0.142584 -0.941054,-0.142584 -0.484785,0 -1.425839,0.09981 -0.941054,0.09981 -1.397323,0.09981 -0.27091,0 -0.470527,-0.18536 -0.185359,-0.199617 -0.185359,-0.470527 0,-0.370718 0.35646,-0.556077 l -0.01426,-0.527561 q 0,-1.055121 0.08555,-2.366893 0.09981,-1.311772 0.199617,-2.709095 0.114067,-1.411581 0.114067,-2.252826 0,-0.213876 0.213876,-0.327943 0.228135,-0.114067 0.456269,-0.114067 0.370718,0 0.684403,0.199617 0.327943,0.185359 0.327943,0.527561 0,0.969571 -0.171101,2.495219 -0.370718,3.307947 -0.370718,4.234743 v 0.52756 q 0.327943,0 0.983829,-0.05703 0.655886,-0.05703 0.983829,-0.05703 z"
         style="font-style:normal;font-variant:normal;font-weight:normal;font-stretch:normal;font-size:14.25839424px;font-family:'AR CENA';-inkscape-font-specification:'AR CENA,  weight=101';font-variant-ligatures:normal;font-variant-caps:normal;font-variant-numeric:normal;font-feature-settings:normal;text-align:start;writing-mode:lr-tb;text-anchor:start;stroke-width:0.26458338"
         id="path1544"
         inkscape:connector-curvature="0" />
      <path
         d="m 41.538134,31.916384 q -0.698661,0 -1.169188,-0.35646 -0.541819,-0.413494 -0.541819,-1.083638 0,-1.140672 1.097896,-1.9534 0.898279,-0.670145 2.153017,-0.884021 l 0.01426,-0.342201 q 0,-0.370718 -0.04277,-0.513302 -0.08555,-0.299427 -0.35646,-0.299427 -0.370718,0 -0.655886,0.370719 -0.641628,0.826987 -0.855504,0.826987 -0.228134,0 -0.427752,-0.156843 -0.185359,-0.171101 -0.185359,-0.413493 0,-0.62737 0.79847,-1.254739 0.79847,-0.627369 1.454356,-0.627369 0.998088,0 1.411581,0.912537 0.313685,0.684403 0.313685,1.967658 0,0.570336 -0.02852,1.012346 -0.02852,0.442011 -0.05703,1.040863 0,0.242393 0.07129,0.556078 0.08555,0.299426 0.1711,0.61311 0,0.27091 -0.313684,0.513303 -0.299427,0.228134 -0.598853,0.228134 -0.270909,0 -0.456268,-0.199618 -0.18536,-0.199617 -0.27091,-0.484785 -0.684403,0.527561 -1.525648,0.527561 z m -0.342202,-1.611199 q 0,0.342202 0.427752,0.342202 0.399235,0 0.869762,-0.256652 0.470527,-0.256651 0.570336,-0.61311 0.02852,-0.128326 0.02852,-0.285168 0,-0.156843 0,-0.242393 v -0.313685 q -0.598853,0 -1.197705,0.370719 -0.698662,0.427751 -0.698662,0.998087 z"
         style="font-style:normal;font-variant:normal;font-weight:normal;font-stretch:normal;font-size:14.25839424px;font-family:'AR CENA';-inkscape-font-specification:'AR CENA,  weight=101';font-variant-ligatures:normal;font-variant-caps:normal;font-variant-numeric:normal;font-feature-settings:normal;text-align:start;writing-mode:lr-tb;text-anchor:start;stroke-width:0.26458338"
         id="path1546"
         inkscape:connector-curvature="0" />
      <path
         d="m 49.234994,25.528623 q 0.35646,0 0.598852,0.171101 0.256651,0.1711 0.256651,0.513302 0,0.342201 -0.242392,0.641628 -0.228135,0.285168 -0.541819,0.285168 -0.07129,0 -0.228135,-0.04278 -0.156842,-0.04277 -0.228134,-0.04277 -0.912537,0 -1.397322,1.15493 -0.370719,0.884021 -0.370719,1.924883 0,0.27091 0.09981,0.755695 0.114067,0.484786 0.114067,0.655886 0,0.242393 -0.270909,0.399235 -0.27091,0.142584 -0.527561,0.142584 -0.627369,0 -0.784212,-0.941054 -0.05703,-0.342201 -0.05703,-0.912537 v -0.342201 q 0,-0.741437 0.02852,-2.466703 0.02852,-1.739524 0.02852,-1.853591 0,-0.256651 0.256652,-0.384976 0.270909,-0.142584 0.556077,-0.142584 0.370718,0 0.513302,0.1711 0.142584,0.171101 0.142584,0.484786 0,0.128325 -0.02852,0.470527 -0.02852,0.327943 -0.02852,0.342201 0.484786,-0.456268 0.955313,-0.698661 0.570336,-0.285168 1.15493,-0.285168 z"
         style="font-style:normal;font-variant:normal;font-weight:normal;font-stretch:normal;font-size:14.25839424px;font-family:'AR CENA';-inkscape-font-specification:'AR CENA,  weight=101';font-variant-ligatures:normal;font-variant-caps:normal;font-variant-numeric:normal;font-feature-settings:normal;text-align:start;writing-mode:lr-tb;text-anchor:start;stroke-width:0.26458338"
         id="path1548"
         inkscape:connector-curvature="0" />
      <path
         d="m 50.901666,30.319443 q 0.327943,0.256652 0.741437,0.456269 0.413493,0.199618 0.998087,0.199618 0.427752,0 0.670145,-0.07129 0.242393,-0.08555 0.242393,-0.228135 0,-0.114067 -1.596941,-0.869762 -1.582681,-0.755695 -1.582681,-1.68249 0,-1.055121 1.383064,-1.967659 1.283255,-0.841245 2.39541,-0.841245 0.556078,0 0.812729,0.384977 0.256651,0.370718 0.256651,0.955312 0,0.44201 -0.185359,0.912537 -0.242393,0.598853 -0.613111,0.598853 -0.228135,0 -0.442011,-0.171101 -0.199617,-0.185359 -0.199617,-0.413493 0,-0.05703 0.185359,-0.470527 0.08555,-0.185359 0.08555,-0.285168 0,-0.228134 -0.256651,-0.228134 -0.427752,0 -1.169188,0.499043 -0.741437,0.484786 -0.741437,0.884021 0,0.285168 1.539907,0.983829 1.539907,0.698661 1.539907,1.539907 0,0.826986 -0.826987,1.254738 -0.670145,0.342202 -1.582682,0.342202 -0.71292,0 -1.354547,-0.228135 -0.884021,-0.313684 -0.884021,-0.898278 0,-0.199618 0.185359,-0.427752 0.185359,-0.228135 0.399235,-0.228135 z"
         style="font-style:normal;font-variant:normal;font-weight:normal;font-stretch:normal;font-size:14.25839424px;font-family:'AR CENA';-inkscape-font-specification:'AR CENA,  weight=101';font-variant-ligatures:normal;font-variant-caps:normal;font-variant-numeric:normal;font-feature-settings:normal;text-align:start;writing-mode:lr-tb;text-anchor:start;stroke-width:0.26458338"
         id="path1550"
         inkscape:connector-curvature="0" />
    </g>
    <path
       style="opacity:1;vector-effect:none;fill:none;fill-opacity:1;stroke:#0000ff;stroke-width:0.05;stroke-linecap:butt;stroke-linejoin:miter;stroke-miterlimit:4;stroke-dasharray:none;stroke-dashoffset:0;stroke-opacity:1"
       d="M 31.685901,3.0000085 31.654791,29.00012 H 13.880975 L 9.9623033,36.000003 H 6.9999999 v -0.99999 -12.999994"
       id="path5363-0-2-2"
       inkscape:connector-curvature="0"
       sodipodi:nodetypes="ccccccc" />
    <path
       style="opacity:1;vector-effect:none;fill:none;fill-opacity:1;stroke:#0000ff;stroke-width:0.05;stroke-linecap:butt;stroke-linejoin:miter;stroke-miterlimit:4;stroke-dasharray:none;stroke-dashoffset:0;stroke-opacity:1"
       d="m 170.3141,2.9999917 0.0311,26.0001123 h 17.77382 l 3.91867,6.999882 H 195 v -0.99999 -12.999993"
       id="path5363-0-2-2-9"
       inkscape:connector-curvature="0"
       sodipodi:nodetypes="ccccccc" />
    <g
       aria-label="Lars"
       transform="matrix(0.99369727,0,0,1.0063427,113.22647,1.9068892)"
       style="font-style:normal;font-variant:normal;font-weight:normal;font-stretch:normal;font-size:14.25839424px;line-height:1.25;font-family:'AR CENA';-inkscape-font-specification:'AR CENA, weight=101';font-variant-ligatures:normal;font-variant-caps:normal;font-variant-numeric:normal;font-feature-settings:normal;text-align:start;letter-spacing:0px;word-spacing:0px;writing-mode:lr-tb;text-anchor:start;fill:#000000;fill-opacity:1;stroke:none;stroke-width:0.26458338"
       id="text1203-4-0-0-8">
      <path
         d="m 38.053516,30.419252 q 0.655886,0 1.012346,0.142584 0.570336,0.228135 0.570336,0.769953 0,0.213876 -0.142584,0.470527 -0.142584,0.256652 -0.342201,0.256652 -0.213876,0 -0.527561,-0.05703 -0.769953,-0.142584 -0.941054,-0.142584 -0.484785,0 -1.425839,0.09981 -0.941054,0.09981 -1.397323,0.09981 -0.27091,0 -0.470527,-0.18536 -0.185359,-0.199617 -0.185359,-0.470527 0,-0.370718 0.35646,-0.556077 l -0.01426,-0.527561 q 0,-1.055121 0.08555,-2.366893 0.09981,-1.311772 0.199617,-2.709095 0.114067,-1.411581 0.114067,-2.252826 0,-0.213876 0.213876,-0.327943 0.228135,-0.114067 0.456269,-0.114067 0.370718,0 0.684403,0.199617 0.327943,0.185359 0.327943,0.527561 0,0.969571 -0.171101,2.495219 -0.370718,3.307947 -0.370718,4.234743 v 0.52756 q 0.327943,0 0.983829,-0.05703 0.655886,-0.05703 0.983829,-0.05703 z"
         style="font-style:normal;font-variant:normal;font-weight:normal;font-stretch:normal;font-size:14.25839424px;font-family:'AR CENA';-inkscape-font-specification:'AR CENA,  weight=101';font-variant-ligatures:normal;font-variant-caps:normal;font-variant-numeric:normal;font-feature-settings:normal;text-align:start;writing-mode:lr-tb;text-anchor:start;stroke-width:0.26458338"
         id="path1544-6"
         inkscape:connector-curvature="0" />
      <path
         d="m 41.538134,31.916384 q -0.698661,0 -1.169188,-0.35646 -0.541819,-0.413494 -0.541819,-1.083638 0,-1.140672 1.097896,-1.9534 0.898279,-0.670145 2.153017,-0.884021 l 0.01426,-0.342201 q 0,-0.370718 -0.04277,-0.513302 -0.08555,-0.299427 -0.35646,-0.299427 -0.370718,0 -0.655886,0.370719 -0.641628,0.826987 -0.855504,0.826987 -0.228134,0 -0.427752,-0.156843 -0.185359,-0.171101 -0.185359,-0.413493 0,-0.62737 0.79847,-1.254739 0.79847,-0.627369 1.454356,-0.627369 0.998088,0 1.411581,0.912537 0.313685,0.684403 0.313685,1.967658 0,0.570336 -0.02852,1.012346 -0.02852,0.442011 -0.05703,1.040863 0,0.242393 0.07129,0.556078 0.08555,0.299426 0.1711,0.61311 0,0.27091 -0.313684,0.513303 -0.299427,0.228134 -0.598853,0.228134 -0.270909,0 -0.456268,-0.199618 -0.18536,-0.199617 -0.27091,-0.484785 -0.684403,0.527561 -1.525648,0.527561 z m -0.342202,-1.611199 q 0,0.342202 0.427752,0.342202 0.399235,0 0.869762,-0.256652 0.470527,-0.256651 0.570336,-0.61311 0.02852,-0.128326 0.02852,-0.285168 0,-0.156843 0,-0.242393 v -0.313685 q -0.598853,0 -1.197705,0.370719 -0.698662,0.427751 -0.698662,0.998087 z"
         style="font-style:normal;font-variant:normal;font-weight:normal;font-stretch:normal;font-size:14.25839424px;font-family:'AR CENA';-inkscape-font-specification:'AR CENA,  weight=101';font-variant-ligatures:normal;font-variant-caps:normal;font-variant-numeric:normal;font-feature-settings:normal;text-align:start;writing-mode:lr-tb;text-anchor:start;stroke-width:0.26458338"
         id="path1546-6"
         inkscape:connector-curvature="0" />
      <path
         d="m 49.234994,25.528623 q 0.35646,0 0.598852,0.171101 0.256651,0.1711 0.256651,0.513302 0,0.342201 -0.242392,0.641628 -0.228135,0.285168 -0.541819,0.285168 -0.07129,0 -0.228135,-0.04278 -0.156842,-0.04277 -0.228134,-0.04277 -0.912537,0 -1.397322,1.15493 -0.370719,0.884021 -0.370719,1.924883 0,0.27091 0.09981,0.755695 0.114067,0.484786 0.114067,0.655886 0,0.242393 -0.270909,0.399235 -0.27091,0.142584 -0.527561,0.142584 -0.627369,0 -0.784212,-0.941054 -0.05703,-0.342201 -0.05703,-0.912537 v -0.342201 q 0,-0.741437 0.02852,-2.466703 0.02852,-1.739524 0.02852,-1.853591 0,-0.256651 0.256652,-0.384976 0.270909,-0.142584 0.556077,-0.142584 0.370718,0 0.513302,0.1711 0.142584,0.171101 0.142584,0.484786 0,0.128325 -0.02852,0.470527 -0.02852,0.327943 -0.02852,0.342201 0.484786,-0.456268 0.955313,-0.698661 0.570336,-0.285168 1.15493,-0.285168 z"
         style="font-style:normal;font-variant:normal;font-weight:normal;font-stretch:normal;font-size:14.25839424px;font-family:'AR CENA';-inkscape-font-specification:'AR CENA,  weight=101';font-variant-ligatures:normal;font-variant-caps:normal;font-variant-numeric:normal;font-feature-settings:normal;text-align:start;writing-mode:lr-tb;text-anchor:start;stroke-width:0.26458338"
         id="path1548-6"
         inkscape:connector-curvature="0" />
      <path
         d="m 50.901666,30.319443 q 0.327943,0.256652 0.741437,0.456269 0.413493,0.199618 0.998087,0.199618 0.427752,0 0.670145,-0.07129 0.242393,-0.08555 0.242393,-0.228135 0,-0.114067 -1.596941,-0.869762 -1.582681,-0.755695 -1.582681,-1.68249 0,-1.055121 1.383064,-1.967659 1.283255,-0.841245 2.39541,-0.841245 0.556078,0 0.812729,0.384977 0.256651,0.370718 0.256651,0.955312 0,0.44201 -0.185359,0.912537 -0.242393,0.598853 -0.613111,0.598853 -0.228135,0 -0.442011,-0.171101 -0.199617,-0.185359 -0.199617,-0.413493 0,-0.05703 0.185359,-0.470527 0.08555,-0.185359 0.08555,-0.285168 0,-0.228134 -0.256651,-0.228134 -0.427752,0 -1.169188,0.499043 -0.741437,0.484786 -0.741437,0.884021 0,0.285168 1.539907,0.983829 1.539907,0.698661 1.539907,1.539907 0,0.826986 -0.826987,1.254738 -0.670145,0.342202 -1.582682,0.342202 -0.71292,0 -1.354547,-0.228135 -0.884021,-0.313684 -0.884021,-0.898278 0,-0.199618 0.185359,-0.427752 0.185359,-0.228135 0.399235,-0.228135 z"
         style="font-style:normal;font-variant:normal;font-weight:normal;font-stretch:normal;font-size:14.25839424px;font-family:'AR CENA';-inkscape-font-specification:'AR CENA,  weight=101';font-variant-ligatures:normal;font-variant-caps:normal;font-variant-numeric:normal;font-feature-settings:normal;text-align:start;writing-mode:lr-tb;text-anchor:start;stroke-width:0.26458338"
         id="path1550-9"
         inkscape:connector-curvature="0" />
    </g>
    <path
       inkscape:connector-curvature="0"
       style="opacity:1;fill:#000000;fill-opacity:1;stroke:none;stroke-width:0.05000001;stroke-linecap:butt;stroke-linejoin:miter;stroke-miterlimit:4;stroke-dasharray:none;stroke-opacity:1;paint-order:normal"
       d="m 113.31816,31.877957 a 1.7280099,2.1215 0 0 0 -1.72829,2.121837 1.7280099,2.1215 0 0 0 1.72829,2.121315 1.7280099,2.1215 0 0 0 1.72776,-2.121315 1.7280099,2.1215 0 0 0 -1.72776,-2.121837 z m 0,0.646475 a 1.1602352,1.4749997 0 0 1 1.15984,1.475362 1.1602352,1.4749997 0 0 1 -1.15984,1.474845 1.1602352,1.4749997 0 0 1 -1.16035,-1.474845 1.1602352,1.4749997 0 0 1 1.16035,-1.475362 z"
       id="path5182-7-4-6-9" />
    <path
       inkscape:connector-curvature="0"
       style="opacity:1;fill:#000000;fill-opacity:1;stroke:none;stroke-width:0.05000001;stroke-linecap:butt;stroke-linejoin:miter;stroke-miterlimit:4;stroke-dasharray:none;stroke-opacity:1;paint-order:normal"
       d="m 88.682059,31.878928 a 1.7280099,2.1215 0 0 0 -1.728285,2.121834 1.7280099,2.1215 0 0 0 1.728285,2.121318 1.7280099,2.1215 0 0 0 1.727778,-2.121318 1.7280099,2.1215 0 0 0 -1.727778,-2.121834 z m 0,0.646475 a 1.1602352,1.4749997 0 0 1 1.159838,1.475359 1.1602352,1.4749997 0 0 1 -1.159838,1.474848 1.1602352,1.4749997 0 0 1 -1.160354,-1.474848 1.1602352,1.4749997 0 0 1 1.160354,-1.475359 z"
       id="path5182-7-4-6-5-3" />
    <rect
       style="opacity:1;fill:none;fill-opacity:1;stroke:#ff0000;stroke-width:0.05;stroke-linecap:round;stroke-linejoin:round;stroke-miterlimit:4;stroke-dasharray:none;stroke-opacity:1;paint-order:normal"
       id="rect4979-69-3-4-8"
       width="12.836646"
       height="12"
       x="201.14455"
       y="4.5952673" />
    <rect
       style="opacity:1;fill:none;fill-opacity:1;stroke:#ff0000;stroke-width:0.05;stroke-linecap:round;stroke-linejoin:round;stroke-miterlimit:4;stroke-dasharray:none;stroke-opacity:1;paint-order:normal"
       id="rect4979-69-3-4-8-3"
       width="12.836646"
       height="12"
       x="215.95604"
       y="4.5952673" />
    <path
       style="opacity:1;vector-effect:none;fill:none;fill-opacity:0.46733668;stroke:#ff0000;stroke-width:0.05;stroke-linecap:butt;stroke-linejoin:miter;stroke-miterlimit:4;stroke-dasharray:none;stroke-dashoffset:0;stroke-opacity:1"
       d="m 321.00294,41.999633 c 2.00169,-6.68255 2.97792,-13.34893 2.96932,-19.99982 0.009,-6.65089 -0.96763,-13.3172698 -2.96932,-19.99981 h -2.9683 -5.3e-4 v 2.99981 h -2.99981 v -5e-4 h -0.0341 v -2.99931 h -2.17765 -0.0341 v 2.99981 h -7.37009 v -2.99878 h -2.94658 v 2.99723 h -7.37216 v -2.99826 h -4.12378 v 2.99981 H 287.976 v -5e-4 h -0.0341 v -2.99828 h -2.96571 v 2.99878 h -0.0372 -2.96313 -0.032 v -2.99981 h -2.96777 v 2.99981 h -0.0377 -2.96261 -0.0315 v -2.99981 h -2.9683 v 2.99981 h -2.99982 v -5e-4 h -0.0315 v -2.99931 h -3.15949 -0.0331 v 2.99981 h -7.36906 v -2.99981 h -2.95124 v 2.99826 h -7.37061 v -2.99826 h -2.02675 v 2.99981 H 247.00031 244.0346 244 v -2.99981 h -2.96571 -2.03088 v 2.99981 17 17 2.99982 H 241.03429 244 v -2.99982 h 0.0346 2.96571 0.0341 v 2.99982 h 2.02675 v -2.99827 h 7.37061 v 2.99827 h 2.95124 v -2.99982 h 7.36906 v 2.99982 h 0.0331 3.1595 v -2.9993 h 0.0315 v -5.3e-4 h 2.99982 v 2.99982 h 2.9683 v -2.99982 h 0.0315 2.96261 0.0377 v 2.99982 h 2.96777 v -2.99982 h 0.032 2.96313 0.0372 v 2.99879 h 2.96571 v -2.99827 h 0.0341 v -5.3e-4 h 2.99982 v 2.99982 h 4.12378 v -2.99825 h 7.37216 v 2.99724 h 2.94659 v -2.99879 h 7.37009 v 2.99982 h 0.0341 2.17765 v -2.9993 h 0.0341 v -5.3e-4 h 2.9998 v 2.99982 h 5.3e-4 z"
       id="path910-2-1-0-6-0"
       inkscape:connector-curvature="0" />
    <rect
       style="opacity:1;fill:none;fill-opacity:0.38693471;stroke:#ff0000;stroke-width:0.05;stroke-linecap:square;stroke-linejoin:miter;stroke-miterlimit:4;stroke-dasharray:none;stroke-opacity:1;paint-order:normal"
       id="rect5829-2-1-6-4-7"
       width="3"
       height="3"
       x="-321.00293"
       y="-35.999638"
       transform="scale(-1)" />
    <rect
       style="opacity:1;fill:none;fill-opacity:0.38693471;stroke:#ff0000;stroke-width:0.05;stroke-linecap:square;stroke-linejoin:miter;stroke-miterlimit:4;stroke-dasharray:none;stroke-opacity:1;paint-order:normal"
       id="rect5831-3-3-2-4-9"
       width="3"
       height="3"
       x="-321.00293"
       y="-29.999638"
       transform="scale(-1)" />
    <rect
       style="opacity:1;fill:none;fill-opacity:0.38693471;stroke:#ff0000;stroke-width:0.05;stroke-linecap:square;stroke-linejoin:miter;stroke-miterlimit:4;stroke-dasharray:none;stroke-opacity:1;paint-order:normal"
       id="rect5833-2-0-3-9-7"
       width="3"
       height="3"
       x="-321.00293"
       y="-16.999636"
       transform="scale(-1)" />
    <rect
       style="opacity:1;fill:none;fill-opacity:0.38693471;stroke:#ff0000;stroke-width:0.05;stroke-linecap:square;stroke-linejoin:miter;stroke-miterlimit:4;stroke-dasharray:none;stroke-opacity:1;paint-order:normal"
       id="rect5835-6-4-7-1-5"
       width="3"
       height="3"
       x="-321.00293"
       y="-10.999637"
       transform="scale(-1)" />
    <rect
       style="opacity:1;fill:none;fill-opacity:0.38693471;stroke:#ff0000;stroke-width:0.05;stroke-linecap:square;stroke-linejoin:miter;stroke-miterlimit:4;stroke-dasharray:none;stroke-opacity:1;paint-order:normal"
       id="rect5837-3-1-5-4-4"
       width="3"
       height="3"
       x="-244.00293"
       y="-35.999638"
       transform="scale(-1)" />
    <rect
       style="opacity:1;fill:none;fill-opacity:0.38693471;stroke:#ff0000;stroke-width:0.05;stroke-linecap:square;stroke-linejoin:miter;stroke-miterlimit:4;stroke-dasharray:none;stroke-opacity:1;paint-order:normal"
       id="rect5839-0-4-7-1-1"
       width="3"
       height="3"
       x="-244.00293"
       y="-29.999638"
       transform="scale(-1)" />
    <rect
       style="opacity:1;fill:none;fill-opacity:0.38693471;stroke:#ff0000;stroke-width:0.05;stroke-linecap:square;stroke-linejoin:miter;stroke-miterlimit:4;stroke-dasharray:none;stroke-opacity:1;paint-order:normal"
       id="rect5841-8-8-9-2-4"
       width="3"
       height="3"
       x="-244.00293"
       y="-16.999636"
       transform="scale(-1)" />
    <rect
       style="opacity:1;fill:none;fill-opacity:0.38693471;stroke:#ff0000;stroke-width:0.05;stroke-linecap:square;stroke-linejoin:miter;stroke-miterlimit:4;stroke-dasharray:none;stroke-opacity:1;paint-order:normal"
       id="rect5843-4-4-2-3-6"
       width="3"
       height="3"
       x="-244.00293"
       y="-10.999637"
       transform="scale(-1)" />
    <ellipse
       style="opacity:1;fill:none;fill-opacity:1;stroke:#0a00ff;stroke-width:0.05;stroke-linecap:round;stroke-linejoin:round;stroke-miterlimit:4;stroke-dasharray:none;stroke-opacity:1;paint-order:normal"
       id="path4567-3-1-3-46-4-3-0-5-8-1"
       cx="21.054249"
       cy="39.475025"
       rx="6.1467791"
       ry="6.2249999" />
    <rect
       style="opacity:1;fill:none;fill-opacity:1;stroke:#ff0000;stroke-width:0.05;stroke-linecap:round;stroke-linejoin:miter;stroke-miterlimit:4;stroke-dasharray:none;stroke-opacity:1;paint-order:normal"
       id="rect4574-7-4"
       width="2.95"
       height="2.95"
       x="65.616783"
       y="38.000027" />
    <ellipse
       style="opacity:1;fill:none;fill-opacity:1;stroke:#0a00ff;stroke-width:0.05;stroke-linecap:round;stroke-linejoin:round;stroke-miterlimit:4;stroke-dasharray:none;stroke-opacity:1;paint-order:normal"
       id="path4567-3-1-3-46-4-3-0-5-8-1-7"
       cx="67.091782"
       cy="39.475025"
       rx="6.1467791"
       ry="6.2249999" />
    <rect
       style="opacity:1;fill:none;fill-opacity:1;stroke:#ff0000;stroke-width:0.05;stroke-linecap:round;stroke-linejoin:miter;stroke-miterlimit:4;stroke-dasharray:none;stroke-opacity:1;paint-order:normal"
       id="rect4574-7-9"
       width="2.95"
       height="2.95"
       x="133.43294"
       y="37.999813" />
    <ellipse
       style="opacity:1;fill:none;fill-opacity:1;stroke:#0a00ff;stroke-width:0.05;stroke-linecap:round;stroke-linejoin:round;stroke-miterlimit:4;stroke-dasharray:none;stroke-opacity:1;paint-order:normal"
       id="path4567-3-1-3-46-4-3-0-5-8-1-8"
       cx="134.90793"
       cy="39.474812"
       rx="6.1467791"
       ry="6.2249999" />
    <rect
       style="opacity:1;fill:none;fill-opacity:1;stroke:#ff0000;stroke-width:0.05;stroke-linecap:round;stroke-linejoin:miter;stroke-miterlimit:4;stroke-dasharray:none;stroke-opacity:1;paint-order:normal"
       id="rect4574-7-0"
       width="2.95"
       height="2.95"
       x="179.47052"
       y="37.999813" />
    <ellipse
       style="opacity:1;fill:none;fill-opacity:1;stroke:#0a00ff;stroke-width:0.05;stroke-linecap:round;stroke-linejoin:round;stroke-miterlimit:4;stroke-dasharray:none;stroke-opacity:1;paint-order:normal"
       id="path4567-3-1-3-46-4-3-0-5-8-1-73"
       cx="180.94551"
       cy="39.474812"
       rx="6.1467791"
       ry="6.2249999" />
  </g>
</svg>
